<svg width="120" height="120" viewBox="0 0 120 120" fill="none" xmlns="http://www.w3.org/2000/svg">
<g clip-path="url(#clip0_5153_37783)">
<path d="M102.427 17.5734C91.0945 6.24141 76.0266 0 60 0C43.9734 0 28.9055 6.24141 17.5734 17.5734C6.24141 28.9055 0 43.9734 0 60C0 76.0266 6.24141 91.0945 17.5734 102.427C28.9055 113.759 43.9734 120 60 120C76.0266 120 91.0945 113.759 102.427 102.427C113.759 91.0945 120 76.0266 120 60C120 43.9734 113.759 28.9055 102.427 17.5734ZM101.869 59.5312L98.6766 65.7961L81.1008 56.8406L65.6883 61.8492L75.2133 74.9602L94.6969 78.0469L93.5977 84.9914L81.0586 83.0063L89.2945 94.343L83.6063 98.475L75.3703 87.1383L73.3852 99.6773L66.4406 98.5781L69.5273 79.0945L60.0023 65.9836L50.4773 79.0945L53.5641 98.5781L46.6195 99.6773L44.6344 87.1383L36.3984 98.475L30.7102 94.343L38.9461 83.0063L26.4094 84.9914L25.3102 78.0469L44.7937 74.9602L54.3187 61.8492L38.9062 56.8406L21.3305 65.7961L18.1383 59.5312L29.4492 53.768L16.1227 49.4367L18.2953 42.75L31.6219 47.0813L25.8586 35.7703L32.1234 32.5781L41.0789 50.1539L56.4914 55.1602V38.9555L42.5438 25.0078L47.5148 20.0367L56.4914 29.0133V15H63.5227V29.0133L72.4992 20.0367L77.4703 25.0078L63.5227 38.9555V55.1602L78.9352 50.1516L87.8906 32.5758L94.1555 35.768L88.3922 47.0789L101.719 42.7477L103.891 49.4344L90.5648 53.7656L101.876 59.5289L101.869 59.5312Z" fill="#0088CC"/>
</g>
<defs>
<clipPath id="clip0_5153_37783">
<rect width="120" height="120" fill="white"/>
</clipPath>
</defs>
</svg>
